<svg xmlns="http://www.w3.org/2000/svg" xmlns:xlink="http://www.w3.org/1999/xlink" width="100" height="100" viewBox="0 0 100 100"><circle stroke="none" fill="#ffc107" r="48%" cx="50%" cy="50%"></circle><g transform="translate(50 50) scale(0.69 0.69) rotate(0) translate(-50 -50)" style="fill:#000000"><svg fill="#000000" xmlns="http://www.w3.org/2000/svg" xmlns:xlink="http://www.w3.org/1999/xlink" version="1.1" x="0px" y="0px" viewBox="0 0 64 64" enable-background="new 0 0 64 64" xml:space="preserve"><g display="none"><rect x="-644.876" y="-227.8" display="inline" fill="#000000" width="805" height="395"></rect></g><g display="none"><g display="inline"><g><path d="M32,0.805c17.204,0,31.2,13.996,31.2,31.2s-13.996,31.2-31.2,31.2S0.8,49.209,0.8,32.005S14.796,0.805,32,0.805      M32,0.005c-17.673,0-32,14.327-32,32s14.327,32,32,32s32-14.327,32-32S49.673,0.005,32,0.005L32,0.005z"></path></g></g><g display="inline"><rect x="44" y="28.41" transform="matrix(-1 -4.502011e-11 4.502011e-11 -1 96 64.0208)" width="8" height="7.2"></rect><rect x="12" y="29.21" transform="matrix(-1 -4.493973e-11 4.493973e-11 -1 51.2 59.2208)" width="27.2" height="0.8"></rect><rect x="12" y="31.61" transform="matrix(-1 -4.493973e-11 4.493973e-11 -1 51.2 64.0208)" width="27.2" height="0.8"></rect><rect x="12" y="34.01" transform="matrix(-1 -4.493973e-11 4.493973e-11 -1 51.2 68.8208)" width="27.2" height="0.8"></rect><rect x="44" y="17.21" transform="matrix(-1 -4.502011e-11 4.502011e-11 -1 96 41.6208)" width="8" height="7.2"></rect><rect x="12" y="18.01" transform="matrix(-1 -4.493973e-11 4.493973e-11 -1 51.2 36.8208)" width="27.2" height="0.8"></rect><rect x="12" y="20.41" transform="matrix(-1 -4.493973e-11 4.493973e-11 -1 51.2 41.6208)" width="27.2" height="0.8"></rect><rect x="12" y="22.81" transform="matrix(-1 -4.480606e-11 4.480606e-11 -1 51.2 46.4208)" width="27.2" height="0.8"></rect><rect x="44" y="39.61" transform="matrix(-1 -4.502011e-11 4.502011e-11 -1 96 86.4208)" width="8" height="7.2"></rect><rect x="12" y="40.41" transform="matrix(-1 -4.493973e-11 4.493973e-11 -1 51.2 81.6208)" width="27.2" height="0.8"></rect><rect x="12" y="42.81" transform="matrix(-1 -4.480606e-11 4.480606e-11 -1 51.2 86.4208)" width="27.2" height="0.8"></rect><rect x="12" y="45.21" transform="matrix(-1 -4.493973e-11 4.493973e-11 -1 51.2 91.2208)" width="27.2" height="0.8"></rect></g></g><g display="none"><g display="inline"><g><path d="M32,0.805c17.204,0,31.2,13.996,31.2,31.2s-13.996,31.2-31.2,31.2S0.8,49.209,0.8,32.005S14.796,0.805,32,0.805      M32,0.005c-17.673,0-32,14.327-32,32s14.327,32,32,32s32-14.327,32-32S49.673,0.005,32,0.005L32,0.005z"></path></g></g><g display="inline"><g><path d="M51.2,29.21v5.6h-6.4v-5.6H51.2 M52,28.41h-8v7.2h8V28.41L52,28.41z"></path></g><rect x="12" y="29.21" transform="matrix(-1 -4.493973e-11 4.493973e-11 -1 51.2 59.2208)" width="27.2" height="0.8"></rect><rect x="12" y="31.61" transform="matrix(-1 -4.493973e-11 4.493973e-11 -1 51.2 64.0208)" width="27.2" height="0.8"></rect><rect x="12" y="34.01" transform="matrix(-1 -4.493973e-11 4.493973e-11 -1 51.2 68.8208)" width="27.2" height="0.8"></rect><g><path d="M51.2,18.01v5.6h-6.4v-5.6H51.2 M52,17.21h-8v7.2h8V17.21L52,17.21z"></path></g><rect x="12" y="18.01" transform="matrix(-1 -4.493973e-11 4.493973e-11 -1 51.2 36.8208)" width="27.2" height="0.8"></rect><rect x="12" y="20.41" transform="matrix(-1 -4.493973e-11 4.493973e-11 -1 51.2 41.6208)" width="27.2" height="0.8"></rect><rect x="12" y="22.81" transform="matrix(-1 -4.480606e-11 4.480606e-11 -1 51.2 46.4208)" width="27.2" height="0.8"></rect><g><path d="M51.2,40.41v5.6h-6.4v-5.6H51.2 M52,39.61h-8v7.2h8V39.61L52,39.61z"></path></g><rect x="12" y="40.41" transform="matrix(-1 -4.493973e-11 4.493973e-11 -1 51.2 81.6208)" width="27.2" height="0.8"></rect><rect x="12" y="42.81" transform="matrix(-1 -4.480606e-11 4.480606e-11 -1 51.2 86.4208)" width="27.2" height="0.8"></rect><rect x="12" y="45.21" transform="matrix(-1 -4.493973e-11 4.493973e-11 -1 51.2 91.2208)" width="27.2" height="0.8"></rect></g></g><g display="none"><g display="inline"><g><path d="M32,1.705c16.707,0,30.3,13.593,30.3,30.3s-13.593,30.3-30.3,30.3S1.7,48.713,1.7,32.005S15.293,1.705,32,1.705      M32,0.005c-17.673,0-32,14.327-32,32s14.327,32,32,32s32-14.327,32-32S49.673,0.005,32,0.005L32,0.005z"></path></g></g><g display="inline"><rect x="44" y="28.41" transform="matrix(-1 -4.502011e-11 4.502011e-11 -1 96 64.0208)" width="8" height="7.2"></rect><rect x="12" y="29.21" transform="matrix(-1 -4.493973e-11 4.493973e-11 -1 51.2 59.2208)" width="27.2" height="0.8"></rect><rect x="12" y="31.61" transform="matrix(-1 -4.493973e-11 4.493973e-11 -1 51.2 64.0208)" width="27.2" height="0.8"></rect><rect x="12" y="34.01" transform="matrix(-1 -4.493973e-11 4.493973e-11 -1 51.2 68.8208)" width="27.2" height="0.8"></rect><rect x="44" y="17.21" transform="matrix(-1 -4.502011e-11 4.502011e-11 -1 96 41.6208)" width="8" height="7.2"></rect><rect x="12" y="18.01" transform="matrix(-1 -4.493973e-11 4.493973e-11 -1 51.2 36.8208)" width="27.2" height="0.8"></rect><rect x="12" y="20.41" transform="matrix(-1 -4.493973e-11 4.493973e-11 -1 51.2 41.6208)" width="27.2" height="0.8"></rect><rect x="12" y="22.81" transform="matrix(-1 -4.480606e-11 4.480606e-11 -1 51.2 46.4208)" width="27.2" height="0.8"></rect><rect x="44" y="39.61" transform="matrix(-1 -4.502011e-11 4.502011e-11 -1 96 86.4208)" width="8" height="7.2"></rect><rect x="12" y="40.41" transform="matrix(-1 -4.493973e-11 4.493973e-11 -1 51.2 81.6208)" width="27.2" height="0.8"></rect><rect x="12" y="42.81" transform="matrix(-1 -4.480606e-11 4.480606e-11 -1 51.2 86.4208)" width="27.2" height="0.8"></rect><rect x="12" y="45.21" transform="matrix(-1 -4.493973e-11 4.493973e-11 -1 51.2 91.2208)" width="27.2" height="0.8"></rect></g></g><g><g><path d="M32,0.005c-17.673,0-32,14.327-32,32s14.327,32,32,32s32-14.327,32-32S49.673,0.005,32,0.005z M32,61.005    c-15.991,0-29-13.009-29-29s13.009-29,29-29s29,13.009,29,29S47.991,61.005,32,61.005z"></path><rect x="44" y="28.41" width="8" height="7.2"></rect><rect x="12" y="29.21" width="27.2" height="0.8"></rect><rect x="12" y="31.61" width="27.2" height="0.8"></rect><rect x="12" y="34.01" width="27.2" height="0.8"></rect><rect x="44" y="17.21" width="8" height="7.2"></rect><rect x="12" y="18.01" width="27.2" height="0.8"></rect><rect x="12" y="20.41" width="27.2" height="0.8"></rect><rect x="12" y="22.81" width="27.2" height="0.8"></rect><rect x="44" y="39.61" width="8" height="7.2"></rect><rect x="12" y="40.41" width="27.2" height="0.8"></rect><rect x="12" y="42.81" width="27.2" height="0.8"></rect><rect x="12" y="45.21" width="27.2" height="0.8"></rect></g></g></svg></g></svg>